<?xml version="1.0" encoding="UTF-8" standalone="no"?><!DOCTYPE svg PUBLIC "-//W3C//DTD SVG 1.1//EN" "http://www.w3.org/Graphics/SVG/1.1/DTD/svg11.dtd"><svg width="100%" height="100%" viewBox="0 0 159 159" version="1.1" xmlns="http://www.w3.org/2000/svg" xmlns:xlink="http://www.w3.org/1999/xlink" xml:space="preserve" xmlns:serif="http://www.serif.com/" style="fill-rule:evenodd;clip-rule:evenodd;stroke-linejoin:round;stroke-miterlimit:2;"><rect x="3.78" y="3.78" width="151.181" height="151.181"/><path d="M158.74,0l-158.74,0l0,158.74l158.74,0l0,-158.74Zm-3.779,3.78l-151.181,-0l-0,151.181l151.181,-0l-0,-151.181Z" style="fill:#e90e00;"/><path d="M34.016,34.016l-0,15.118l15.118,-0l-0,-15.118l-15.118,-0m30.236,-0l-0,30.236l30.236,-0l0,-15.118l15.118,-0l0,-15.118l-45.354,-0m45.354,30.236l0,15.118l-60.472,0l-0,15.118l-15.118,0l-0,30.236l45.354,0l0,-15.118l15.118,0l0,15.118l15.118,0l0,-15.118l-15.118,0l0,-15.118l15.118,0l0,-15.118l15.118,0l0,-15.118l-15.118,-0Z" style="fill:#fff;fill-rule:nonzero;"/><rect x="49.134" y="94.488" width="15.118" height="15.118" style="fill-rule:nonzero;"/></svg>