<?xml version="1.0" encoding="UTF-8" standalone="no"?>
<!DOCTYPE svg PUBLIC "-//W3C//DTD SVG 1.1//EN" "http://www.w3.org/Graphics/SVG/1.1/DTD/svg11.dtd">
<svg width="100%" height="100%" viewBox="0 0 152 152" version="1.1" xmlns="http://www.w3.org/2000/svg" xmlns:xlink="http://www.w3.org/1999/xlink" xml:space="preserve" xmlns:serif="http://www.serif.com/" style="fill-rule:evenodd;clip-rule:evenodd;stroke-linejoin:round;stroke-miterlimit:2;">
    <g transform="matrix(1.33333,0,0,1.33333,1.57334e-14,1.57334e-14)">
        <rect x="0" y="0" width="113.386" height="113.386" style="fill:white;fill-rule:nonzero;"/>
    </g>
    <g transform="matrix(1.33333,0,0,1.33333,1.57334e-14,1.57334e-14)">
        <rect x="11.339" y="11.339" width="90.709" height="90.709" style="fill-rule:nonzero;"/>
    </g>
    <g transform="matrix(1.33333,0,0,1.33333,1.57334e-14,1.57334e-14)">
        <path d="M22.677,22.677L22.677,34.016L34.016,34.016L34.016,45.354L22.677,45.354L22.677,56.693L34.016,56.693L34.016,68.031L22.677,68.031L22.677,79.37L34.016,79.37L34.016,68.031L45.354,68.031L45.354,90.709L56.693,90.709L56.693,79.37L68.031,79.37L68.031,68.031L56.693,68.031L56.693,56.693L68.031,56.693L68.031,45.354L90.709,45.354L90.709,34.016L79.37,34.016L79.37,22.677L56.693,22.677L56.693,45.354L45.354,45.354L45.354,22.677L22.677,22.677M79.37,68.031L79.37,90.709L90.709,90.709L90.709,68.031L79.37,68.031Z" style="fill:white;fill-rule:nonzero;"/>
    </g>
</svg>
