<?xml version="1.0" encoding="UTF-8" standalone="no"?><!DOCTYPE svg PUBLIC "-//W3C//DTD SVG 1.1//EN" "http://www.w3.org/Graphics/SVG/1.1/DTD/svg11.dtd"><svg width="100%" height="100%" viewBox="0 0 159 159" version="1.1" xmlns="http://www.w3.org/2000/svg" xmlns:xlink="http://www.w3.org/1999/xlink" xml:space="preserve" xmlns:serif="http://www.serif.com/" style="fill-rule:evenodd;clip-rule:evenodd;stroke-linejoin:round;stroke-miterlimit:2;"><path d="M158.74,0l-158.74,0l0,158.74l158.74,0l0,-158.74Zm-3.779,3.78l-151.181,-0l-0,151.181l151.181,-0l-0,-151.181Z" style="fill:#e90e00;"/><path d="M34.016,34.016l-0,15.118l45.354,-0l0,30.236l-15.118,0l-0,15.118l-15.118,0l-0,-30.236l-15.118,-0l-0,45.354l15.118,0l-0,15.118l30.236,0l0,-15.118l-15.118,0l-0,-15.118l15.118,0l0,-15.118l30.236,0l0,15.118l-15.118,0l0,15.118l15.118,0l0,-15.118l15.118,0l0,-60.472l-15.118,-0l0,15.118l-30.236,-0l0,-15.118l-45.354,-0Z" style="fill:#fff;fill-rule:nonzero;"/></svg>