<?xml version="1.0" encoding="UTF-8" standalone="no"?><!DOCTYPE svg PUBLIC "-//W3C//DTD SVG 1.1//EN" "http://www.w3.org/Graphics/SVG/1.1/DTD/svg11.dtd"><svg width="100%" height="100%" viewBox="0 0 159 159" version="1.1" xmlns="http://www.w3.org/2000/svg" xmlns:xlink="http://www.w3.org/1999/xlink" xml:space="preserve" xmlns:serif="http://www.serif.com/" style="fill-rule:evenodd;clip-rule:evenodd;stroke-linejoin:round;stroke-miterlimit:2;"><path id="_1mm-Rand-Rahmen-whatever" serif:id="1mm Rand Rahmen whatever" d="M158.74,0l-158.74,0l0,158.74l158.74,0l0,-158.74Zm-3.779,3.78l-151.181,-0l-0,151.181l151.181,-0l-0,-151.181Z" style="fill:#e90e00;"/><path id="Schriftrahmen" d="M158.74,158.74l0,-22.677l-158.74,-0l0,22.677l158.74,0Zm-158.74,-158.74l0,22.677l158.74,0l0,-22.677l-158.74,0Z" style="fill:#5b8b99;"/><path d="M73.336,30.597l-7.376,-7.778l-37.815,-0l-7.375,7.778l-0,98.158l7.375,7.375l37.815,0l7.376,-7.375l-0,-98.158Zm-32.318,94.806l0,-91.856l12.069,-0l0,91.856l-12.069,-0Z" style="fill-rule:nonzero;"/><path d="M141.591,107.434l-5.632,-0l-0,-84.615l-20.249,-0l0,84.615l-12.203,-0l0,-84.615l-20.248,-0l-0,95.208l32.451,0l0,18.103l20.249,0l-0,-18.103l5.632,0l-0,-10.593Z" style="fill-rule:nonzero;"/></svg>